<svg xmlns="http://www.w3.org/2000/svg" width="763" height="379" version="1"><path d="M0 283.5V188h22.566c13.693 0 23.33-.408 24.506-1.04 1.56-.833 2.422-.557 4.387 1.408l2.445 2.446 2.798-2.524c1.538-1.39 2.165-2.178 1.392-1.753-.912.5-1.163.383-.717-.34.377-.61 1.292-.877 2.034-.593.74.285 2.342-.747 3.558-2.293 1.216-1.545 2.69-2.81 3.275-2.81 1.56 0 2.384-6.428 2.662-20.81.06-3.157.462-4.58 1.17-4.143.59.365 3.568.353 6.615-.028 4.234-.53 5.656-1.137 6.032-2.573.27-1.035 1.25-2.122 2.18-2.416 1.514-.48 2.01-2.388 2.37-9.135.033-.608.997-1.058 2.143-1 1.76.09 2.13.847 2.39 4.88.197 3.087.684 4.54 1.38 4.11.62-.384.88-.083.612.717-.656 1.967 1.862 4.14 4.008 3.46 2.235-.71 5.686-8 5.71-12.062.013-2.335.51-3.07 2.25-3.32 2.075-.297 2.232.063 2.232 5.128 0 3.622.503 5.864 1.5 6.692.825.685 1.5 1.865 1.5 2.622 0 .758 1.013 1.385 2.25 1.393 4.392.03 4.7.93 4.47 13.025-.206 10.753-.068 11.676 2.247 14.96 3.325 4.717 5.006 6.36 5.747 5.62.34-.34.34-.62-.003-.62-.34 0 0-1.76.758-3.91.76-2.15 1.114-4.175.79-4.5-.55-.548 1.274-.98 2.992-.708.412.065.75-.553.75-1.372 0-.82.944-3.653 2.098-6.296 1.998-4.576 2.283-4.802 5.997-4.76 2.74.033 3.923.492 3.98 1.546.057 1.026.242 1.105.587.25.278-.688.944-1.25 1.48-1.25.537 0 .738.385.447.856-.292.47.577.644 1.93.385 1.35-.257 2.24-.82 1.974-1.25-.265-.43.213-1.047 1.064-1.374.875-.336 1.284-.17.942.384-.342.553.067.72.942.384.85-.327 1.277-1.03.948-1.563-.363-.585.133-.567 1.255.046 1.02.557 3.054 1.264 4.52 1.57 1.705.358 3.144 1.642 3.994 3.562.902 2.038 2.042 3.002 3.553 3.002 1.474 0 2.047-.463 1.698-1.372-.33-.866.327-1.526 1.782-1.79 3.876-.698 5.407.097 7.126 3.703.907 1.904 2.136 3.46 2.73 3.46.595 0 2.217 1.35 3.605 3 1.39 1.65 3.272 3.007 4.186 3.015 1.437.014 1.458.146.16.985-1.282.828-1.246.972.25.985 1.035.01 1.75-.733 1.75-1.814 0-1.253.708-1.804 2.25-1.75 1.238.044 2.164-.403 2.06-.994-.262-1.466 9.112-1.806 11.694-.424 1.13.604 2.764 2.876 3.633 5.048 1.09 2.727 2.19 3.95 3.548 3.95 1.083 0 3.368 1.4 5.078 3.11 2.575 2.574 3.164 4.033 3.432 8.5.178 2.964-.058 5.39-.525 5.39-1.425 0-3.07 4.664-2.464 6.985.49 1.876 1.047 2.096 3.933 1.555 2.636-.495 3.36-.298 3.36.915 0 .872.86 1.545 1.974 1.545 2.153 0 5.28 4.964 4.917 7.804-.12.933.058 3.27.393 5.196 1.685 9.684 1.65 11.078-.337 12.778-1.07.917-1.946 2.285-1.946 3.04 0 .755-.93 2.68-2.068 4.277-2.176 3.056-1.887 6.905.52 6.905.723 0 1.562.945 1.864 2.1.302 1.156.95 1.854 1.438 1.552 1.032-.638 3.475 2 5.588 6.03.812 1.55 1.836 2.593 2.276 2.318.44-.275 1.097.95 1.46 2.725.362 1.774 1.393 4.345 2.29 5.715.898 1.37 1.632 3.405 1.632 4.525 0 1.485.653 2.035 2.417 2.035 1.33 0 2.593.53 2.81 1.18.22.66 1.14.893 2.083.53 1.32-.505 1.716-2.026 1.808-6.93.066-3.453.004-6.73-.136-7.28-1.423-5.577-1.39-5.66 2.137-5.323l3.38.323-.308 9.32c-.237 7.157.148 10.753 1.658 15.5 1.082 3.4 2.712 9.33 3.622 13.18.91 3.85 2.035 8.462 2.498 10.25.655 2.525.53 3.25-.564 3.25-1 0-1.428 1.37-1.483 4.75-.042 2.613-.265 5.65-.495 6.75-.597 2.844.447 6.695 1.618 5.972.542-.336.747-.998.454-1.472-.682-1.104.967-2.118 3.983-2.45 2.57-.28 5.805-2.93 4.803-3.93-.34-.34-.045-.62.656-.62 1.162 0 2.442.98 8.16 6.25 1.044.962 2.46 1.743 3.148 1.735.833-.01.75-.34-.25-.985-1.068-.69-1.127-.974-.206-.985 1.01-.012 1.257-3.4 1.126-15.41-.092-8.467.108-15.84.445-16.386.337-.547-.282-1.227-1.376-1.513-1.21-.316-1.99-1.365-1.99-2.672 0-1.32.43-1.888 1.107-1.47.745.462.887-.01.433-1.44-.4-1.26-.24-2.125.393-2.125.587 0 1.067-1.41 1.067-3.135 0-3.05-3.74-7.865-6.11-7.865-.555 0-.71-.48-.348-1.067.363-.588-.282-1.314-1.435-1.615-1.764-.462-2.018-1.12-1.615-4.183.264-2 .71-5.435.994-7.635 1.835-14.267 1.357-13.117 5.264-12.66 2.697.314 3.335.107 2.722-.885-.58-.94-.323-1.112.943-.626 1.484.568 1.65.24 1.113-2.203-.347-1.58-.316-4.124.07-5.656.656-2.617.78-2.674 2.05-.937.744 1.017 1.352 3.537 1.352 5.6 0 2.062.436 4.018.97 4.348 1.878 1.162 27.03 1.265 27.045.112.01-.658.332-.593.812.162.438.69 2.006 1.155 3.485 1.032 2.067-.17 2.688-.75 2.688-2.504 0-1.255.477-2.282 1.06-2.282.58 0 .78-.45.44-1s-.14-1 .44-1c.583 0 1.06.45 1.06 1s.383 1 .85 1c.468 0 .93-2.813 1.026-6.25.096-3.438.42-7.04.718-8.005.327-1.054-.08-1.995-1.02-2.355-.86-.33-1.31-1.01-1-1.51.31-.502.935-.683 1.388-.403.454.28 1.106-.613 1.45-1.984.345-1.37.995-2.493 1.447-2.493 1.438 0 3.007 4.597 2.078 6.092-.48.774-.64 3.208-.354 5.408 1.217 9.355 1.584 10.847 2.357 9.595.43-.696.97-1.34 1.196-1.43.452-.18 2.908 1.794 5.835 4.69 1.033 1.022 2.343 1.57 2.913 1.217.57-.352 1.9-.1 2.957.56 1.587.99 2.373.846 4.507-.833 1.422-1.12 2.356-2.264 2.076-2.544-.28-.28.21-.784 1.086-1.12.913-.352 1.336-.196.99.364-.342.553.067.72.942.384.85-.327 1.3-.99 1-1.477-.3-.486.118-.63.93-.318.89.34 1.944-.312 2.66-1.648.682-1.276 1.455-1.774 1.825-1.177.776 1.25 10.662-3.062 17.937-7.825 4.74-3.104 5-3.496 4.726-7.167-.165-2.217-1.015-4.414-1.98-5.12-1.407-1.03-.462-1.275 5.634-1.468l7.326-.23v5.843c0 6.29 1.202 8.382 5.547 9.66 4.05 1.19 7.953 2.99 7.953 3.665 0 1.294 5.93 3.036 8.176 2.402 1.582-.446 1.895-.36.982.276-.998.693-.1 1.532 3.5 3.27 2.663 1.286 5.647 3.084 6.632 3.995 2.27 2.104 6.205 1.99 6.225-.18.008-.887.512-2.237 1.118-3 .607-.762 1.664-4.422 2.348-8.135 1.373-7.434 2.42-8.667 2.704-3.178.1 1.96.69 4.174 1.31 4.92.62.748 1.03 1.956.91 2.684-.388 2.346 1.257 4.824 3.203 4.824 1.04 0 1.893-.466 1.893-1.035 0-.702.644-.69 2 .035 1.492.8 2 2.094 2 5.102 0 3.337.623 4.62 3.616 7.442 3.915 3.693 3.986 6.09.195 6.628-2.1.298-2.288.782-2.072 5.328.322 6.763.306 5.336.337 29.424l.028 21.424 2.993 3.062c2.05 2.096 3.224 2.69 3.723 1.883.46-.746 3.137-1.108 7.288-.986l6.562.193-.42-14.833c-.364-12.947-.66-15.078-2.333-16.75C478.862 294.862 477.55 294 477 294c-1.552 0-1.178-1.995.494-2.636.822-.316 1.244-.98.937-1.476-.306-.496.144-1.17 1-1.5.858-.33 1.307-1.004 1-1.5-.694-1.125 2.087-4.038 2.992-3.133.363.363.53-7.646.37-17.797-.267-16.864-.443-18.446-2.042-18.32-1.098.088-1.75-.564-1.75-1.75 0-1.038-.623-1.888-1.383-1.888s-1.62-.9-1.907-2c-.318-1.217-.122-1.755.5-1.37.674.416.89-1.963.636-7-.21-4.196.012-7.63.498-7.63s.58-1.463.21-3.25c-.93-4.5-.887-6.693.215-10.75.98-3.613 1.375-3.263 2.81 2.5.835 3.347.835 3.314-.113 5.75-.517 1.328-.173 1.75 1.426 1.75 1.16 0 2.114-.563 2.122-1.25.01-.833.34-.75.985.25.533.825 1.014 1.05 1.068.5.054-.55.217-2.094.362-3.432.144-1.338-.318-3.55-1.028-4.92-.866-1.668-.98-3.068-.346-4.252.52-.97.944-2.694.944-3.83 0-1.136.337-2.064.75-2.062 1.452.007 4.096 8.518 3.59 11.553-.782 4.685 1.378 5.91 6.802 3.858 2.397-.907 5.3-1.71 6.45-1.782 1.473-.094 1.954-.652 1.63-1.89-.252-.966.11-3.13.804-4.806.948-2.288.978-3.333.118-4.193-1.64-1.64-1.41-4.428.42-5.13.865-.332 1.424-1.477 1.25-2.562-.173-1.078.1-1.985.61-2.014.507-.03.972 1.067 1.03 2.437.06 1.37.635 3.014 1.277 3.656.89.89.798 1.88-.382 4.165-1.413 2.73-1.408 2.942.05 2.382.882-.338 1.602-.167 1.602.38 0 1.105 4.284 3.027 7.75 3.475 1.237.16 2.25-.138 2.25-.664s.563-.883 1.25-.793c2.716.352 4.84-.12 4.32-.96-.3-.49.393-1.133 1.542-1.434 1.3-.34 1.81-.997 1.35-1.74-.543-.88-.27-.933 1.042-.197 2.907 1.626 5.496-1.392 5.496-6.406 0-2.32.477-4.513 1.06-4.873.582-.36.93-1.625.776-2.81-.497-3.79 1.303-3.29 2.69.746 1.438 4.18 2.88 5.56 5.83 5.585 1.235.01 1.667-.483 1.288-1.47-.35-.913.283-1.897 1.643-2.555 1.993-.964 2.04-.93.48.334-2.88 2.33-.716 2.806 2.463.543 1.636-1.166 2.5-2.385 1.938-2.733-.56-.345.108-1.158 1.48-1.806 2.14-1.01 2.327-.973 1.302.262-1.486 1.79.06 1.884 2.437.147 1.54-1.127 1.807-3.35 2.062-17.208.196-10.693.663-16.038 1.42-16.29 1.286-.43 1.55-5.832.324-6.59-.444-.274-.62-2.097-.392-4.05l.415-3.553 2.567 4.983c1.412 2.74 2.668 4.874 2.79 4.74.738-.796 1.048-29.537.334-30.89-.603-1.14-.415-1.825.61-2.22 1.093-.418 1.508-2.348 1.582-7.35.054-3.728.405-7.875.78-9.213.627-2.25.784-2.115 2.06 1.75 1.363 4.13 3.413 5.826 2.943 2.433-.133-.963.443-3.325 1.28-5.25.837-1.925 2.074-5.177 2.75-7.227.674-2.05 1.758-3.624 2.407-3.5.65.125 1.123-.525 1.054-1.444-.084-1.12.385-1.476 1.424-1.077 1.15.442 1.38.15.887-1.13-.376-.982-.255-1.475.28-1.145 1.27.785 5.09-2.58 4.33-3.81-.333-.538-.125-.68.46-.32 2.492 1.54 4.434-.564 4.068-4.406-.198-2.076-.06-3.59.304-3.364 1.208.747 1.873-2.654 1.873-9.586 0-5.68-.298-6.923-1.75-7.303-1.566-.41-1.573-.47-.066-.574 1.055-.073 1.8-1.142 2-2.866l.316-2.75 1.65 3.2c.954 1.854 1.232 3.34.66 3.53-1.43.477-1.312 13.46.138 15.207.665.8 1.06 2.718.88 4.26-.266 2.272.1 2.864 1.936 3.124 3.59.51 11.248 8.183 13.87 13.898 1.318 2.87 2.675 7.258 3.017 9.75.646 4.71 2.262 6.205 2.468 2.282.066-1.237.066-2.588 0-3-.065-.412.306-.75.825-.75.518 0 .77-.9.557-2-.57-2.956.068-2.452 2.21 1.75 1.51 2.96 1.7 4.333.9 6.524-.797 2.183-.632 3.418.772 5.796 1.262 2.136 1.483 3.388.754 4.267-.798.96-1.567 19.367-1.188 28.413.092 2.207 1.814 1.333 2.463-1.25 1.066-4.246 2.923-2.983 2.206 1.5-.352 2.2-.238 4 .253 4 .49 0 .952 4.838 1.026 10.75.25 19.79 1.666 26.25 5.76 26.25.74 0 1.344.365 1.344.812 0 .447 1.414 1.858 3.143 3.136l3.143 2.324 1.865-2.386c1.067-1.365 1.755-3.634 1.608-5.302-.142-1.604.27-3.092.913-3.307.747-.25.977.358.633 1.67-.296 1.136-.098 2.624.44 3.308.54.685 1.286 2.52 1.66 4.08.78 3.27 5.113 7.665 7.552 7.665 1.44 0 1.69-1.54 1.882-11.586.207-10.895.1-11.618-1.808-12.117-1.117-.292-2.03-1.02-2.03-1.618 0-1.192 3.403-13.712 11.064-40.707 2.736-9.64 5.157-18.965 5.38-20.722.22-1.756.64-3.576.927-4.042.29-.466.754-2.11 1.034-3.65.96-5.29 2.647-4.613 4.915 1.966 1.286 3.734 1.637 3.995 5.752 4.295 5.968.432 11.77-.675 9.86-1.884-1.16-.734-1.086-.908.39-.92 1-.01 2.496-.69 3.32-1.516.898-.897 1.047-1.5.37-1.5-.62 0-.852-.45-.512-1 1.13-1.826 2.243-1.037 2.855 2.024.707 3.534 3.105 4.794 5.856 3.076 1.276-.796 2.35-.88 3.118-.246 1.522 1.257 27.905 1.332 27.13.076-.317-.51-.1-.93.483-.93s1.06.424 1.06.943c0 .518 1.013.72 2.25.446 4.616-1.02 6.814-1.096 7.333-.255.294.476 2.308.865 4.476.865H763v266H0v-95.5z"/></svg>