<svg viewBox="0 -240 380 400" xmlns="http://www.w3.org/2000/svg"><title>oxford-city-silhouette-9440-svg</title><path d="M0 116.104V68.208h11.357c6.89 0 11.74-.205 12.333-.52.785-.42 1.22-.28 2.208.705l1.23 1.226 1.41-1.267c.773-.696 1.09-1.092.7-.88-.46.253-.586.193-.36-.17.19-.305.65-.44 1.022-.296.373.142 1.18-.375 1.79-1.15.613-.776 1.355-1.41 1.65-1.41.785 0 1.2-3.224 1.34-10.437.03-1.584.232-2.297.587-2.078.298.183 1.797.177 3.33-.014 2.13-.265 2.847-.57 3.036-1.29.136-.52.63-1.064 1.097-1.212.762-.24 1.01-1.198 1.193-4.582.016-.305.502-.53 1.078-.502.887.045 1.074.426 1.204 2.448.1 1.548.345 2.277.694 2.062.313-.193.443-.042.31.36-.33.985.937 2.075 2.016 1.734 1.125-.356 2.862-4.012 2.874-6.05.007-1.17.258-1.54 1.132-1.664 1.045-.15 1.124.03 1.124 2.572 0 1.816.253 2.94.755 3.356.414.343.754.935.754 1.315 0 .38.51.694 1.132.7 2.21.014 2.366.466 2.25 6.53-.104 5.394-.034 5.857 1.13 7.504 1.674 2.365 2.52 3.19 2.893 2.817.17-.17.17-.31-.003-.31-.172 0 0-.883.38-1.96.383-1.08.562-2.095.4-2.258-.277-.276.64-.493 1.505-.357.207.033.377-.277.377-.688 0-.41.474-1.832 1.055-3.157 1.006-2.295 1.15-2.41 3.018-2.387 1.38.017 1.975.247 2.004.776.028.515.12.554.295.125.14-.344.475-.626.745-.626s.37.193.225.43c-.147.235.29.322.97.193.68-.13 1.128-.412.995-.627-.134-.216.107-.526.535-.69.44-.168.646-.085.474.193-.172.277.034.36.475.192.43-.163.643-.516.477-.783-.182-.294.068-.286.632.022.513.28 1.536.634 2.274.788.858.18 1.582.823 2.01 1.786.454 1.022 1.03 1.505 1.79 1.505.74 0 1.03-.232.853-.688-.167-.434.164-.765.897-.897 1.95-.35 2.72.048 3.586 1.857.457.954 1.075 1.735 1.374 1.735.3 0 1.116.677 1.814 1.504.7.828 1.647 1.508 2.107 1.512.724.007.734.073.08.494-.644.416-.626.488.127.494.52.005.88-.367.88-.91 0-.63.357-.905 1.133-.877.623.022 1.09-.203 1.036-.5-.13-.734 4.587-.905 5.887-.212.568.303 1.39 1.443 1.828 2.532.55 1.368 1.102 1.98 1.786 1.98.546 0 1.696.703 2.556 1.56 1.297 1.292 1.593 2.023 1.728 4.263.09 1.487-.03 2.704-.264 2.704-.718 0-1.546 2.34-1.24 3.503.247.94.527 1.05 1.98.78 1.326-.248 1.69-.15 1.69.46 0 .436.433.774.994.774 1.083 0 2.657 2.49 2.474 3.915-.06.468.03 1.64.198 2.606.848 4.858.83 5.557-.17 6.41-.538.46-.98 1.145-.98 1.524 0 .38-.467 1.344-1.04 2.145-1.095 1.532-.95 3.462.26 3.462.365 0 .788.474.94 1.053.152.58.478.93.724.778.52-.32 1.75 1.003 2.812 3.025.408.777.924 1.3 1.145 1.162.222-.138.552.477.735 1.367.183.89.7 2.18 1.153 2.866.452.687.82 1.708.82 2.27 0 .745.33 1.02 1.217 1.02.67 0 1.306.267 1.414.592.11.33.574.448 1.05.266.663-.252.863-1.015.91-3.474.032-1.733 0-3.376-.07-3.652-.716-2.797-.7-2.84 1.076-2.67l1.702.162-.156 4.675c-.12 3.59.075 5.394.835 7.774.544 1.705 1.365 4.68 1.823 6.61.458 1.93 1.024 4.245 1.257 5.14.33 1.268.266 1.63-.284 1.63-.504 0-.72.69-.747 2.383-.02 1.31-.133 2.834-.25 3.386-.3 1.426.226 3.358.815 2.995.273-.168.376-.5.228-.738-.343-.554.487-1.062 2.005-1.228 1.295-.142 2.922-1.47 2.418-1.973-.17-.17-.023-.31.33-.31.585 0 1.23.49 4.107 3.134.525.482 1.238.874 1.584.87.42-.006.377-.17-.126-.494-.538-.346-.568-.49-.104-.494.508-.006.633-1.706.567-7.73-.047-4.246.054-7.944.224-8.217.17-.275-.142-.616-.692-.76-.608-.158-1-.684-1-1.34 0-.66.215-.946.556-.736.375.23.446-.005.218-.723-.2-.63-.12-1.065.198-1.065.295 0 .537-.707.537-1.572 0-1.53-1.882-3.944-3.075-3.944-.28 0-.358-.242-.175-.537.182-.294-.142-.658-.722-.81-.888-.23-1.016-.56-.813-2.097.133-1.003.358-2.726.5-3.83.924-7.155.683-6.578 2.65-6.35 1.357.16 1.678.055 1.37-.443-.293-.47-.163-.557.474-.314.747.285.83.12.56-1.105-.175-.792-.16-2.068.035-2.837.33-1.313.394-1.34 1.033-.47.374.51.68 1.774.68 2.808 0 1.034.22 2.016.488 2.18.947.583 13.605.635 13.613.057.004-.33.167-.298.408.08.222.347 1.01.58 1.755.52 1.04-.087 1.353-.377 1.353-1.257 0-.63.24-1.145.533-1.145.294 0 .394-.224.223-.5-.17-.276-.07-.502.222-.502.293 0 .533.226.533.502s.192.5.428.5c.235 0 .467-1.41.516-3.133.048-1.724.21-3.53.362-4.015.164-.528-.04-1-.514-1.18-.432-.166-.66-.508-.503-.76.156-.25.47-.34.698-.2.23.14.557-.308.73-.996.173-.687.5-1.25.728-1.25.724 0 1.514 2.306 1.047 3.055-.242.39-.323 1.61-.18 2.714.614 4.692.798 5.44 1.188 4.812.216-.35.487-.672.6-.718.23-.09 1.465.9 2.938 2.353.52.514 1.178.788 1.465.61.288-.175.958-.05 1.49.282.798.497 1.194.424 2.268-.418.715-.56 1.185-1.135 1.044-1.275-.14-.14.105-.395.547-.563.46-.176.672-.098.498.183-.172.277.033.36.474.192.428-.164.654-.497.503-.74-.15-.244.06-.316.468-.16.448.17.978-.156 1.338-.826.345-.64.734-.89.92-.59.39.627 5.366-1.536 9.027-3.925 2.387-1.555 2.517-1.752 2.38-3.593-.084-1.112-.512-2.214-.997-2.568-.71-.517-.233-.64 2.835-.737l3.687-.116v2.93c0 3.155.605 4.205 2.792 4.845 2.037.597 4.002 1.5 4.002 1.84 0 .647 2.985 1.52 4.115 1.203.797-.224.955-.18.495.14-.502.346-.05.767 1.762 1.638 1.34.645 2.842 1.547 3.337 2.004 1.143 1.055 3.123.998 3.133-.09.005-.445.258-1.123.563-1.505.306-.382.837-2.218 1.182-4.08.69-3.728 1.218-4.347 1.36-1.594.05.983.348 2.094.66 2.468.312.375.517.98.457 1.346-.196 1.177.632 2.42 1.61 2.42.525 0 .954-.234.954-.52 0-.352.324-.346 1.007.018.752.4 1.007 1.05 1.007 2.56 0 1.672.314 2.316 1.82 3.73 1.97 1.853 2.006 3.056.098 3.325-1.057.15-1.152.392-1.043 2.672.162 3.392.154 2.676.17 14.757l.013 10.745 1.507 1.535c1.032 1.05 1.623 1.35 1.874.944.232-.375 1.58-.557 3.668-.495l3.302.096-.21-7.438c-.184-6.493-.333-7.562-1.175-8.4-.53-.53-1.19-.962-1.467-.962-.78 0-.593-1 .25-1.322.412-.158.624-.49.47-.74-.154-.25.072-.588.503-.752.43-.165.658-.504.503-.753-.35-.564 1.05-2.025 1.505-1.57.183.18.266-3.836.186-8.927-.133-8.458-.222-9.25-1.027-9.187-.552.042-.88-.285-.88-.88 0-.52-.314-.946-.696-.946-.383 0-.815-.452-.96-1.004-.16-.61-.06-.88.25-.687.34.21.45-.984.322-3.51-.108-2.105.005-3.827.25-3.827.244 0 .29-.733.105-1.63-.468-2.257-.446-3.357.108-5.39.494-1.814.692-1.638 1.415 1.252.42 1.68.42 1.662-.057 2.884-.26.667-.086.878.72.878.582 0 1.063-.282 1.067-.627.005-.418.17-.376.495.125.27.414.51.527.538.25.027-.275.11-1.05.182-1.72.073-.67-.16-1.78-.517-2.467-.436-.836-.493-1.54-.175-2.132.262-.487.476-1.35.476-1.92 0-.57.17-1.036.377-1.035.73.003 2.062 4.272 1.807 5.794-.394 2.35.694 2.965 3.423 1.935 1.206-.455 2.667-.857 3.246-.894.74-.047.983-.327.82-.948-.127-.484.055-1.57.404-2.41.477-1.148.492-1.672.06-2.103-.825-.822-.71-2.22.21-2.573.436-.166.718-.74.63-1.285-.087-.542.05-.996.307-1.01.256-.015.49.534.52 1.22.03.688.32 1.513.642 1.835.447.446.402.943-.193 2.088-.712 1.37-.71 1.476.025 1.195.443-.17.806-.084.806.19 0 .555 2.157 1.52 3.9 1.744.624.08 1.134-.07 1.134-.333 0-.265.283-.444.63-.4 1.366.177 2.435-.06 2.173-.48-.152-.246.198-.57.776-.72.654-.17.91-.5.68-.873-.274-.442-.137-.468.524-.1 1.463.817 2.766-.697 2.766-3.212 0-1.163.24-2.263.533-2.444.293-.18.47-.813.39-1.408-.25-1.9.657-1.65 1.355.374.724 2.096 1.45 2.79 2.935 2.8.62.006.84-.24.648-.736-.176-.458.142-.95.827-1.28 1.003-.485 1.027-.468.24.166-1.448 1.168-.36 1.407 1.24.272.824-.584 1.26-1.196.977-1.37-.282-.173.054-.58.745-.906 1.076-.507 1.17-.488.655.13-.75.9.03.946 1.226.075.775-.565.91-1.68 1.038-8.63.1-5.363.335-8.043.716-8.17.647-.215.78-2.925.163-3.305-.224-.137-.313-1.05-.198-2.03l.208-1.783 1.292 2.498c.71 1.375 1.343 2.445 1.405 2.378.37-.4.527-14.814.167-15.493-.303-.572-.208-.915.308-1.112.55-.21.76-1.178.796-3.686.027-1.87.204-3.95.392-4.62.316-1.13.395-1.062 1.037.877.686 2.073 1.718 2.923 1.48 1.22-.066-.482.224-1.667.645-2.632a51.036 51.036 0 0 0 1.384-3.624c.34-1.028.885-1.818 1.212-1.756.326.063.565-.263.53-.724-.042-.562.194-.74.717-.54.58.222.694.076.446-.567-.188-.492-.127-.74.142-.574.64.394 2.562-1.293 2.18-1.91-.168-.27-.064-.342.23-.16 1.255.772 2.233-.284 2.048-2.21-.1-1.042-.03-1.8.153-1.688.608.375.943-1.33.943-4.808 0-2.848-.15-3.472-.88-3.662-.79-.205-.793-.236-.034-.288.53-.036.906-.572 1.006-1.437l.16-1.38.83 1.606c.48.93.62 1.674.332 1.77-.72.24-.66 6.75.07 7.627.334.402.534 1.363.443 2.136-.134 1.14.05 1.436.974 1.566 1.807.256 5.66 4.104 6.98 6.97.664 1.44 1.347 3.64 1.518 4.89.325 2.362 1.14 3.112 1.242 1.144.033-.62.033-1.297 0-1.504-.032-.207.154-.376.415-.376.26 0 .387-.452.28-1.004-.286-1.482.035-1.23 1.113.878.76 1.485.855 2.173.453 3.272-.4 1.095-.318 1.714.39 2.907.634 1.07.745 1.7.378 2.14-.402.482-.79 9.713-.598 14.25.046 1.107.913.67 1.24-.627.536-2.13 1.47-1.496 1.11.752-.178 1.104-.12 2.006.126 2.006.247 0 .48 2.427.518 5.392.125 9.926.838 13.165 2.898 13.165.372 0 .677.184.677.408 0 .224.712.932 1.582 1.573l1.58 1.166.94-1.196c.536-.685.882-1.822.808-2.66-.072-.803.135-1.55.46-1.658.375-.125.49.18.317.838-.15.57-.05 1.316.222 1.66.272.342.647 1.263.835 2.045.394 1.64 2.574 3.844 3.8 3.844.726 0 .852-.772.948-5.81.105-5.465.05-5.828-.91-6.078-.56-.147-1.02-.512-1.02-.812 0-.597 1.712-6.877 5.567-20.415 1.377-4.835 2.595-9.512 2.707-10.393.112-.88.323-1.794.468-2.027.145-.234.38-1.058.52-1.83.482-2.654 1.33-2.315 2.473.985.648 1.872.824 2.004 2.896 2.154 3.004.217 5.923-.338 4.962-.944-.583-.368-.546-.456.197-.462.503-.004 1.255-.346 1.67-.76.452-.45.527-.752.186-.752-.313 0-.43-.226-.258-.502.568-.916 1.13-.52 1.437 1.015.356 1.772 1.563 2.404 2.947 1.542.642-.4 1.183-.442 1.57-.124.765.63 14.043.668 13.652.04-.16-.258-.05-.468.244-.468.293 0 .533.213.533.473s.51.36 1.133.224c2.324-.51 3.43-.55 3.69-.128.15.238 1.163.433 2.254.433H384V164H0v-47.896z" fill="#000" fill-rule="evenodd" opacity=".269"/></svg>